# xmcd
#
# Track frame offsets:
#	150
#	11524
#	27259
#	38889
#	50110
#	60921
#	72538
#	86580
#	99182
#	113146
#	127172
#	139786
#	152649
#	163927
#	174204
#	188873
#	199959
#	212371
#	222922
#	234735
#
# Disc length: 3294 seconds
#
# Revision: 1
# Processed by: cddbd v1.5.2PL0 Copyright (c) Steve Scherf et al.
# Submitted via: audiograbber 1.83.01
#
DISCID=1b0cdc14
DTITLE=Glen Campbell - Classic Campbell Disc 3
DYEAR=2006
DGENRE=Country
TTITLE0=Tomorrow Never Comes
TTITLE1=He Ain't Heavy, He's My Brother
TTITLE2=All I Have to Do Is Dream
TTITLE3=Blowin' in the Wind [Instrumental]
TTITLE4=Elusive Butterfly
TTITLE5=Everything a Man Could Ever Need
TTITLE6=Country Boy (You Got Your Feet in L.A.)
TTITLE7=Somethin' Bout You Baby I Like
TTITLE8=Honey, Come Back
TTITLE9=Classical Gas [Instrumental]
TTITLE10=Mr. Tambourine Man [Instrumental]
TTITLE11=(I Never Promised You) A Rose Garden
TTITLE12=Wimoweh (The Lion Sleeps Tonight) [Instrumental]
TTITLE13=King of the Road [Instrumental]
TTITLE14=Little Green Apples
TTITLE15=I'm So Lonesome I Could Cry
TTITLE16=If Not for You
TTITLE17=Reason to Believe
TTITLE18=Take These Chains from My Heart
TTITLE19=Cold, Cold Heart
EXTD=
EXTT0=
EXTT1=
EXTT2=
EXTT3=
EXTT4=
EXTT5=
EXTT6=
EXTT7=
EXTT8=
EXTT9=
EXTT10=
EXTT11=
EXTT12=
EXTT13=
EXTT14=
EXTT15=
EXTT16=
EXTT17=
EXTT18=
EXTT19=
PLAYORDER=
